<?xml version="1.0" encoding="UTF-8"?>
<svg version="1.1" xmlns="http://www.w3.org/2000/svg" width="512" height="512">
<path d="M0 0 C21.55938409 18.23941582 35.1303024 42.61444636 39.05859375 70.62109375 C39.27207792 74.2688162 39.2445693 77.89441557 39.19140625 81.546875 C39.19221188 83.58007963 39.19486962 85.61328423 39.19921875 87.64648438 C39.19724678 90.80483757 39.18319403 93.96133839 39.13769531 97.11938477 C39.09865481 100.20049016 39.10974899 103.27815409 39.12890625 106.359375 C39.09037033 107.7704528 39.09037033 107.7704528 39.05105591 109.21003723 C39.10247882 114.3171797 39.10247882 114.3171797 41.78753662 118.47348022 C43.8675222 120.07111162 43.8675222 120.07111162 46.02389526 121.34587097 C53.06734846 125.76027046 56.4995099 133.4241476 58.80859375 141.12109375 C59.98109452 152.84610148 57.60417781 162.3710954 50.05859375 171.62109375 C43.12925637 179.08217885 35.05491679 181.98640657 25.05859375 182.62109375 C25.105 183.29011719 25.15140625 183.95914063 25.19921875 184.6484375 C25.97741787 205.35409258 17.42035905 224.46625444 5.05859375 240.62109375 C4.55714844 241.29527344 4.05570313 241.96945312 3.5390625 242.6640625 C-3.36770455 251.36221005 -13.27235409 258.31761011 -22.94140625 263.62109375 C-23.60140625 263.62109375 -24.26140625 263.62109375 -24.94140625 263.62109375 C-24.94140625 269.56109375 -24.94140625 275.50109375 -24.94140625 281.62109375 C-21.10515625 281.58628906 -21.10515625 281.58628906 -17.19140625 281.55078125 C-14.6559295 281.53508968 -12.12045859 281.5229994 -9.58496094 281.51123047 C-7.85121149 281.5013032 -6.11747818 281.48775694 -4.38378906 281.47021484 C9.93461028 281.32918774 24.46893906 281.35863229 38.12109375 286.24609375 C38.85787354 286.4997168 39.59465332 286.75333984 40.35375977 287.01464844 C49.08545585 290.1516501 57.34273288 294.4771865 65.05859375 299.62109375 C65.08046753 298.56535156 65.08046753 298.56535156 65.1027832 297.48828125 C65.72346274 270.60825176 68.09183054 246.79825691 88.16015625 226.90820312 C101.99045591 213.94655529 120.66394842 207.99548356 139.3984375 208.3828125 C156.92926401 209.52409363 172.89273898 215.74087384 185.05859375 228.62109375 C185.82429688 229.35714844 186.59 230.09320313 187.37890625 230.8515625 C192.06997344 235.59828642 195.41892283 240.59230475 198.43359375 246.49609375 C198.75537598 247.11943604 199.0771582 247.74277832 199.40869141 248.38500977 C205.88473031 261.82167747 205.42746533 275.29976979 205.24609375 289.87109375 C205.23101979 291.98436546 205.21733619 294.09764758 205.20507812 296.2109375 C205.17228726 301.34791648 205.12065432 306.48438842 205.05859375 311.62109375 C206.17355225 311.59281494 206.17355225 311.59281494 207.31103516 311.56396484 C208.29249512 311.54930176 209.27395508 311.53463867 210.28515625 311.51953125 C211.25533691 311.50067871 212.22551758 311.48182617 213.22509766 311.46240234 C219.04681803 311.78845079 222.75118834 314.37179525 226.87109375 318.30859375 C231.90393099 325.92974728 232.49824414 333.37475999 232.44677734 342.33203125 C232.45466278 344.03869965 232.45466278 344.03869965 232.46270752 345.77984619 C232.47584755 349.51873747 232.46719032 353.25719858 232.45703125 356.99609375 C232.4590537 359.60725994 232.46196656 362.21842558 232.46572876 364.82958984 C232.47117084 370.29334115 232.46403558 375.75697039 232.44970703 381.22070312 C232.43338339 387.51750408 232.43867301 393.81401352 232.45518625 400.11080742 C232.47049442 406.19396673 232.46880576 412.27699785 232.46004105 418.36016846 C232.45804498 420.93727662 232.46047739 423.51439227 232.46747971 426.0914917 C232.47512919 429.69791144 232.46344014 433.30377755 232.44677734 436.91015625 C232.45285004 437.96704651 232.45892273 439.02393677 232.46517944 440.112854 C232.39837387 447.94867067 231.22946596 454.33377298 226.87109375 460.93359375 C218.57112859 468.86467157 209.75565898 468.19033035 199.00469971 468.12902832 C197.24917736 468.13363941 195.49365888 468.13999373 193.73814845 468.1479373 C188.9222148 468.16462574 184.10659847 468.15638634 179.29066372 468.14399242 C174.09350377 468.13494204 168.89639838 468.1489118 163.69924927 468.15991211 C153.52010797 468.1777035 143.34108462 468.17385412 133.1619387 468.16226155 C124.88705034 468.15322797 116.61219504 468.15200291 108.33730316 468.15635681 C107.15954787 468.15696974 105.98179257 468.15758268 104.76834773 468.15821418 C102.37570676 468.15949309 99.98306581 468.16078995 97.59042487 468.16210455 C75.15027715 468.17351268 52.71019477 468.160394 30.27005777 468.13890308 C11.02375575 468.12104121 -8.22244973 468.12412827 -27.46875 468.14257812 C-49.82240553 468.16399674 -72.17600373 468.17240422 -94.52966809 468.16012907 C-96.91472959 468.15885489 -99.29979109 468.15759741 -101.6848526 468.15635681 C-103.44504639 468.15543116 -103.44504639 468.15543116 -105.24079965 468.15448681 C-113.50178196 468.15103619 -121.76272786 468.15685624 -130.02370453 468.16627502 C-140.09712476 468.17750778 -150.17042036 468.17442843 -160.24382636 468.15315205 C-165.38151435 468.14265746 -170.51899473 468.1384926 -175.65668106 468.15174866 C-180.36461068 468.16371184 -185.07214125 468.15704539 -189.78003493 468.13583845 C-191.4785136 468.13138887 -193.17702632 468.13360145 -194.87548289 468.1433416 C-208.85132106 468.21730853 -220.38942546 466.52247072 -230.94140625 456.62109375 C-231.57949219 456.02425781 -232.21757812 455.42742187 -232.875 454.8125 C-242.27398222 445.09011195 -244.08041183 433.03253208 -244.14453125 420.05078125 C-244.15308136 418.67540695 -244.15308136 418.67540695 -244.1618042 417.27224731 C-244.1712212 415.33076109 -244.17777501 413.38925912 -244.18164062 411.44775391 C-244.19121664 408.55340366 -244.22221634 405.65980502 -244.25390625 402.765625 C-244.45647771 367.47070462 -235.58693079 337.39076683 -210.62890625 311.87109375 C-189.15459304 290.6517526 -161.43019702 281.38050761 -131.64610291 281.42996216 C-129.09860603 281.44541336 -126.55131879 281.47044785 -124.00390625 281.49609375 C-122.24154161 281.50615606 -120.47917134 281.51527609 -118.71679688 281.5234375 C-114.45807415 281.54344089 -110.20015923 281.58263035 -105.94140625 281.62109375 C-105.94140625 276.01109375 -105.94140625 270.40109375 -105.94140625 264.62109375 C-107.92140625 263.96109375 -109.90140625 263.30109375 -111.94140625 262.62109375 C-133.85473691 250.25506483 -148.75126654 230.32147929 -155.48339844 206.34301758 C-157.09929521 200.31940951 -158.06701424 195.0562852 -158.00390625 188.80859375 C-157.99488281 187.64714844 -157.98585938 186.48570312 -157.9765625 185.2890625 C-157.96496094 184.40863281 -157.95335937 183.52820313 -157.94140625 182.62109375 C-159.24078125 182.53859375 -160.54015625 182.45609375 -161.87890625 182.37109375 C-171.82525478 181.21744204 -178.82796261 176.25252259 -185.4453125 168.96484375 C-191.44390117 161.37260018 -192.91393659 152.06274247 -191.94140625 142.62109375 C-190.47991291 134.40019372 -186.79738975 128.47707725 -180.94140625 122.62109375 C-180.63145737 120.46479978 -180.63145737 120.46479978 -180.67016602 117.95043945 C-180.6599794 116.97794754 -180.64979279 116.00545563 -180.63929749 115.00349426 C-180.63715744 113.94530991 -180.6350174 112.88712555 -180.6328125 111.796875 C-180.60761383 109.54752388 -180.58221649 107.29817498 -180.55664062 105.04882812 C-180.52811953 101.51001787 -180.50410842 97.97124724 -180.48510742 94.43237305 C-180.32261319 69.1136296 -180.32261319 69.1136296 -176.94140625 56.62109375 C-176.75360596 55.87287354 -176.56580566 55.12465332 -176.37231445 54.35375977 C-168.96444783 26.55170799 -149.68610122 3.84513078 -125.234375 -10.61328125 C-116.81701421 -15.39732834 -108.28515185 -18.77685051 -98.94140625 -21.37890625 C-97.843125 -21.69859375 -96.74484375 -22.01828125 -95.61328125 -22.34765625 C-62.45052591 -30.524774 -26.22396997 -21.45892227 0 0 Z M100.23046875 251.8203125 C87.08536767 270.30976023 92.05859375 288.18443402 92.05859375 311.62109375 C121.09859375 311.62109375 150.13859375 311.62109375 180.05859375 311.62109375 C182.4196193 275.26413631 182.4196193 275.26413631 167.18359375 246.30859375 C158.07720953 237.73787919 147.00488331 233.20908165 134.39453125 233.40234375 C120.1535424 234.73594806 109.32821454 240.87580208 100.23046875 251.8203125 Z " fill="#5BC557" transform="translate(261.94140625,34.37890625)"/>
<path d="M0 0 C21.55938409 18.23941582 35.1303024 42.61444636 39.05859375 70.62109375 C39.27207792 74.2688162 39.2445693 77.89441557 39.19140625 81.546875 C39.19221188 83.58007963 39.19486962 85.61328423 39.19921875 87.64648438 C39.19724678 90.80483757 39.18319403 93.96133839 39.13769531 97.11938477 C39.09865481 100.20049016 39.10974899 103.27815409 39.12890625 106.359375 C39.09037033 107.7704528 39.09037033 107.7704528 39.05105591 109.21003723 C39.10247882 114.3171797 39.10247882 114.3171797 41.78753662 118.47348022 C43.8675222 120.07111162 43.8675222 120.07111162 46.02389526 121.34587097 C53.06734846 125.76027046 56.4995099 133.4241476 58.80859375 141.12109375 C59.98109452 152.84610148 57.60417781 162.3710954 50.05859375 171.62109375 C43.12925637 179.08217885 35.05491679 181.98640657 25.05859375 182.62109375 C25.105 183.29011719 25.15140625 183.95914063 25.19921875 184.6484375 C25.97741787 205.35409258 17.42035905 224.46625444 5.05859375 240.62109375 C4.55714844 241.29527344 4.05570313 241.96945312 3.5390625 242.6640625 C-3.36770455 251.36221005 -13.27235409 258.31761011 -22.94140625 263.62109375 C-23.60140625 263.62109375 -24.26140625 263.62109375 -24.94140625 263.62109375 C-24.92045898 264.37092529 -24.89951172 265.12075684 -24.87792969 265.89331055 C-24.03336609 300.67276012 -24.03336609 300.67276012 -35.94140625 313.62109375 C-45.41777613 322.24548716 -55.93286662 326.46414177 -68.7734375 326.00390625 C-80.14877902 324.62932737 -90.20299988 318.6456464 -97.375 309.79296875 C-107.03663505 296.39678648 -106.29449367 280.47079574 -105.94140625 264.62109375 C-107.25044922 264.234375 -107.25044922 264.234375 -108.5859375 263.83984375 C-128.01392969 256.78334368 -142.56801179 237.83475765 -151.06884766 219.68310547 C-155.16678465 209.99894882 -158.11016358 199.32806913 -158.00390625 188.80859375 C-157.99488281 187.64714844 -157.98585937 186.48570312 -157.9765625 185.2890625 C-157.96496094 184.40863281 -157.95335937 183.52820313 -157.94140625 182.62109375 C-159.24078125 182.53859375 -160.54015625 182.45609375 -161.87890625 182.37109375 C-171.82525478 181.21744204 -178.82796261 176.25252259 -185.4453125 168.96484375 C-191.44390117 161.37260018 -192.91393659 152.06274247 -191.94140625 142.62109375 C-190.47991291 134.40019372 -186.79738975 128.47707725 -180.94140625 122.62109375 C-180.63145737 120.46479978 -180.63145737 120.46479978 -180.67016602 117.95043945 C-180.6599794 116.97794754 -180.64979279 116.00545563 -180.63929749 115.00349426 C-180.63715744 113.94530991 -180.6350174 112.88712555 -180.6328125 111.796875 C-180.60761383 109.54752388 -180.58221649 107.29817498 -180.55664062 105.04882812 C-180.52811953 101.51001787 -180.50410842 97.97124724 -180.48510742 94.43237305 C-180.32261319 69.1136296 -180.32261319 69.1136296 -176.94140625 56.62109375 C-176.75360596 55.87287354 -176.56580566 55.12465332 -176.37231445 54.35375977 C-168.96444783 26.55170799 -149.68610122 3.84513078 -125.234375 -10.61328125 C-116.81701421 -15.39732834 -108.28515185 -18.77685051 -98.94140625 -21.37890625 C-97.843125 -21.69859375 -96.74484375 -22.01828125 -95.61328125 -22.34765625 C-62.45052591 -30.524774 -26.22396997 -21.45892227 0 0 Z " fill="#F6C8A8" transform="translate(261.94140625,34.37890625)"/>
<path d="M0 0 C2.48223484 2.17051232 4.75606204 4.43174745 7.01953125 6.828125 C7.78523437 7.56417969 8.5509375 8.30023438 9.33984375 9.05859375 C14.03091094 13.80531767 17.37986033 18.799336 20.39453125 24.703125 C20.71631348 25.32646729 21.0380957 25.94980957 21.36962891 26.59204102 C27.84566781 40.02870872 27.38840283 53.50680104 27.20703125 68.078125 C27.19195729 70.19139671 27.17827369 72.30467883 27.16601562 74.41796875 C27.13322476 79.55494773 27.08159182 84.69141967 27.01953125 89.828125 C27.76283691 89.80927246 28.50614258 89.79041992 29.27197266 89.77099609 C30.7441626 89.74900146 30.7441626 89.74900146 32.24609375 89.7265625 C33.21627441 89.70770996 34.18645508 89.68885742 35.18603516 89.66943359 C41.00775553 89.99548204 44.71212584 92.5788265 48.83203125 96.515625 C53.86486849 104.13677853 54.45918164 111.58179124 54.40771484 120.5390625 C54.41560028 122.2457309 54.41560028 122.2457309 54.42364502 123.98687744 C54.43678505 127.72576872 54.42812782 131.46422983 54.41796875 135.203125 C54.4199912 137.81429119 54.42290406 140.42545683 54.42666626 143.03662109 C54.43210834 148.5003724 54.42497308 153.96400164 54.41064453 159.42773438 C54.39432089 165.72453533 54.39961051 172.02104477 54.41612375 178.31783867 C54.43143192 184.40099798 54.42974326 190.4840291 54.42097855 196.56719971 C54.41898248 199.14430787 54.42141489 201.72142352 54.42841721 204.29852295 C54.43606669 207.90494269 54.42437764 211.5108088 54.40771484 215.1171875 C54.41378754 216.17407776 54.41986023 217.23096802 54.42611694 218.31988525 C54.35931137 226.15570192 53.19040346 232.54080423 48.83203125 239.140625 C40.98833955 246.63570818 32.96464816 246.406131 22.734375 246.34570312 C21.18953799 246.35112991 19.64470615 246.35825569 18.09988403 246.36694336 C13.92213778 246.38511365 9.7447885 246.37813542 5.56703568 246.36542702 C1.18522357 246.35526657 -3.19655563 246.36470113 -7.57836914 246.37097168 C-14.93544589 246.37823925 -22.29236177 246.36868383 -29.64941406 246.34960938 C-38.14284565 246.3278423 -46.63589309 246.3348943 -55.12931538 246.356915 C-62.43488244 246.37509445 -69.74033417 246.37761491 -77.04591656 246.36716032 C-81.40340657 246.36093935 -85.7607163 246.36005116 -90.11819458 246.37330627 C-94.21582047 246.38490133 -98.31295337 246.3767729 -102.41052628 246.35372925 C-103.91006783 246.34846158 -105.40965122 246.34992256 -106.90917587 246.35877991 C-115.87631017 246.40684433 -122.90699381 246.20620087 -130.00390625 240.08203125 C-130.44992187 239.52386719 -130.8959375 238.96570313 -131.35546875 238.390625 C-131.81695312 237.83503906 -132.2784375 237.27945313 -132.75390625 236.70703125 C-135.33175327 232.75816368 -136.23059897 229.21968206 -136.25462341 224.53520203 C-136.26459854 223.48812073 -136.27457367 222.44103943 -136.28485107 221.36222839 C-136.28551575 220.22393082 -136.28618042 219.08563324 -136.28686523 217.9128418 C-136.29518875 216.70576569 -136.30351227 215.49868958 -136.31208801 214.2550354 C-136.33203642 210.95110964 -136.34282524 207.64743569 -136.34791446 204.34347129 C-136.35156405 202.2764685 -136.35780723 200.20948972 -136.36491585 198.14249611 C-136.38939383 190.92319302 -136.40245853 183.7039616 -136.40600586 176.48461914 C-136.40963928 169.76857071 -136.43952446 163.05297979 -136.48141044 156.33707112 C-136.51616897 150.56023184 -136.53155526 144.78354377 -136.53225189 139.00660068 C-136.53304287 135.56108531 -136.54169742 132.11603627 -136.57024956 128.6706295 C-136.60141437 124.82410567 -136.59234393 120.97823313 -136.57983398 117.1315918 C-136.59466827 115.99936691 -136.60950256 114.86714203 -136.62478638 113.7006073 C-136.55288728 105.92764354 -134.96185476 100.91652529 -129.50234127 95.31026745 C-123.53451375 89.98840774 -118.61279393 89.57903576 -110.98046875 89.828125 C-111.08439941 88.98241943 -111.08439941 88.98241943 -111.19042969 88.11962891 C-114.14290027 61.86785752 -113.58334809 34.64992413 -96.98046875 12.828125 C-73.23474064 -15.72372378 -30.46371266 -22.19898327 0 0 Z M-77.80859375 30.02734375 C-90.95369483 48.51679148 -85.98046875 66.39146527 -85.98046875 89.828125 C-56.94046875 89.828125 -27.90046875 89.828125 2.01953125 89.828125 C4.3805568 53.47116756 4.3805568 53.47116756 -10.85546875 24.515625 C-19.96185297 15.94491044 -31.03417919 11.4161129 -43.64453125 11.609375 C-57.8855201 12.94297931 -68.71084796 19.08283333 -77.80859375 30.02734375 Z " fill="#F8B838" transform="translate(439.98046875,256.171875)"/>
<path d="M0 0 C21.56281436 18.24231786 35.12418355 42.61300227 39.05859375 70.62109375 C39.29592857 74.41122182 39.29425224 78.18024085 39.25390625 81.9765625 C39.25107635 83.00421219 39.24824646 84.03186188 39.24533081 85.09065247 C39.23425475 88.33009146 39.20917458 91.56924021 39.18359375 94.80859375 C39.17354767 97.02278243 39.16442469 99.2369755 39.15625 101.45117188 C39.13435679 106.84125539 39.09991567 112.23112559 39.05859375 117.62109375 C34.43859375 116.63109375 29.81859375 115.64109375 25.05859375 114.62109375 C25.05859375 122.54109375 25.05859375 130.46109375 25.05859375 138.62109375 C23.33156069 136.03054416 22.54131379 134.35660387 21.65625 131.4609375 C21.40552734 130.66751953 21.15480469 129.87410156 20.89648438 129.05664062 C20.37879261 127.38881248 19.86578158 125.71952436 19.35742188 124.04882812 C19.10541016 123.25669922 18.85339844 122.46457031 18.59375 121.6484375 C18.37082275 120.92390381 18.14789551 120.19937012 17.91821289 119.45288086 C17.08390821 117.2641602 17.08390821 117.2641602 14.05859375 115.62109375 C11.63987574 115.37746368 11.63987574 115.37746368 8.9296875 115.49609375 C7.90367432 115.51325439 6.87766113 115.53041504 5.82055664 115.5480957 C4.72348389 115.57218506 3.62641113 115.59627441 2.49609375 115.62109375 C-30.90873115 115.93382383 -58.25768007 107.92822751 -82.94140625 84.62109375 C-83.60140625 83.96109375 -84.26140625 83.30109375 -84.94140625 82.62109375 C-87.81378358 82.03666412 -87.81378358 82.03666412 -90.94140625 82.62109375 C-93.49104192 84.96890042 -95.80548668 87.47440591 -98.16015625 90.015625 C-109.44430609 101.97605094 -125.31105066 111.11400658 -141.890625 113.00390625 C-144.94648005 113.9235731 -145.98749247 115.06267571 -147.94140625 117.62109375 C-149.37504954 120.84090943 -150.47432293 124.14736037 -151.56640625 127.49609375 C-151.86546875 128.38167969 -152.16453125 129.26726562 -152.47265625 130.1796875 C-153.30689716 132.65657091 -154.12628457 135.137865 -154.94140625 137.62109375 C-155.60807292 139.62109375 -156.27473958 141.62109375 -156.94140625 143.62109375 C-157.27140625 143.62109375 -157.60140625 143.62109375 -157.94140625 143.62109375 C-157.94140625 134.05109375 -157.94140625 124.48109375 -157.94140625 114.62109375 C-165.82720472 115.29728335 -165.82720472 115.29728335 -172.31640625 118.05859375 C-173.12851563 118.49042969 -173.940625 118.92226562 -174.77734375 119.3671875 C-176.53775546 120.38720945 -178.24853778 121.49251477 -179.94140625 122.62109375 C-180.01827905 115.63264112 -180.07034655 108.64429986 -180.10620117 101.65551758 C-180.12116863 99.28438238 -180.14154985 96.91327429 -180.16772461 94.54223633 C-180.30740193 81.55224592 -180.41293055 69.21434001 -176.94140625 56.62109375 C-176.65898071 55.49900513 -176.65898071 55.49900513 -176.37084961 54.35424805 C-168.98703964 26.55404119 -149.67305517 3.83741659 -125.234375 -10.61328125 C-116.81701421 -15.39732834 -108.28515185 -18.77685051 -98.94140625 -21.37890625 C-97.843125 -21.69859375 -96.74484375 -22.01828125 -95.61328125 -22.34765625 C-62.45052591 -30.524774 -26.22396997 -21.45892227 0 0 Z " fill="#2D2C2C" transform="translate(261.94140625,34.37890625)"/>
<path d="M0 0 C0.33 0 0.66 0 1 0 C1.64864918 9.9459541 -1.74618293 18.33355601 -8 26 C-14.92933738 33.4610851 -23.00367696 36.36531282 -33 37 C-32.95359375 37.66902344 -32.9071875 38.33804688 -32.859375 39.02734375 C-32.08117588 59.73299883 -40.6382347 78.84516069 -53 95 C-53.50144531 95.67417969 -54.00289062 96.34835937 -54.51953125 97.04296875 C-61.4262983 105.7411163 -71.33094784 112.69651636 -81 118 C-81.66 118 -82.32 118 -83 118 C-82.97905273 118.74983154 -82.95810547 119.49966309 -82.93652344 120.2722168 C-82.09195984 155.05166637 -82.09195984 155.05166637 -94 168 C-103.47636988 176.62439341 -113.99146037 180.84304802 -126.83203125 180.3828125 C-138.20737277 179.00823362 -148.26159363 173.02455265 -155.43359375 164.171875 C-165.0952288 150.77569273 -164.35308742 134.84970199 -164 119 C-165.30904297 118.61328125 -165.30904297 118.61328125 -166.64453125 118.21875 C-186.07252344 111.16224993 -200.62660554 92.2136639 -209.12744141 74.06201172 C-213.2253784 64.37785507 -216.16875733 53.70697538 -216.0625 43.1875 C-216.05347656 42.02605469 -216.04445312 40.86460937 -216.03515625 39.66796875 C-216.02355469 38.78753906 -216.01195312 37.90710938 -216 37 C-217.299375 36.9175 -218.59875 36.835 -219.9375 36.75 C-229.81924888 35.60384104 -237.14133104 30.67255767 -243.5390625 23.203125 C-247.92349767 17.40849138 -249.29245261 12.31131515 -249 5 C-246.82406526 7.17593474 -246.10157843 8.88695555 -244.875 11.6875 C-240.96003336 19.64372253 -234.33343381 25.01623889 -226 28 C-223.34253226 28.64026073 -220.70138597 29.16481176 -218.00390625 29.60546875 C-216 30 -216 30 -215 31 C-214.72131642 33.18403107 -214.4783489 35.37263402 -214.25 37.5625 C-211.88162552 56.82466111 -204.05217857 73.63544516 -191 88 C-190.17435547 88.94746094 -190.17435547 88.94746094 -189.33203125 89.9140625 C-175.02583817 105.38594539 -152.42437746 115.42890596 -131.49609375 116.3046875 C-104.55807512 116.88795037 -81.01355486 109.52647957 -61 91 C-44.18682353 74.62495191 -35.55013779 53.19861385 -34 30 C-33.16597656 29.84144531 -32.33195313 29.68289062 -31.47265625 29.51953125 C-20.75034174 27.29646261 -12.31552691 24.32843882 -6 15 C-3.13686882 10.20921615 -1.34996956 5.39987826 0 0 Z " fill="#F0B78F" transform="translate(320,180)"/>
<path d="M0 0 C2.48223484 2.17051232 4.75606204 4.43174745 7.01953125 6.828125 C8.16808594 7.93220703 8.16808594 7.93220703 9.33984375 9.05859375 C14.03091094 13.80531767 17.37986033 18.799336 20.39453125 24.703125 C20.71631348 25.32646729 21.0380957 25.94980957 21.36962891 26.59204102 C27.84566781 40.02870872 27.38840283 53.50680104 27.20703125 68.078125 C27.19195729 70.19139671 27.17827369 72.30467883 27.16601562 74.41796875 C27.13579686 79.55515837 27.07703771 84.6908816 27.01953125 89.828125 C18.76953125 89.828125 10.51953125 89.828125 2.01953125 89.828125 C1.98214844 86.98445313 1.94476563 84.14078125 1.90625 81.2109375 C1.85991109 78.42733491 1.80872261 75.64386023 1.75708008 72.86035156 C1.72402379 70.94018463 1.69593313 69.01992503 1.6730957 67.09960938 C1.63919184 64.32382061 1.58686216 61.54886648 1.53125 58.7734375 C1.52486008 57.9282254 1.51847015 57.08301331 1.5118866 56.21218872 C1.22388399 44.27989873 -3.11903552 33.70336965 -11.35546875 25.015625 C-20.26936071 16.70772131 -31.41140319 12.42189411 -43.64453125 12.609375 C-56.93713392 13.85416722 -66.93702131 19.16360328 -75.98046875 28.828125 C-82.65102675 37.75017114 -85.41133505 46.85788501 -85.4921875 57.89453125 C-85.5101387 58.81403061 -85.5280899 59.73352997 -85.54658508 60.68089294 C-85.60026136 63.58409192 -85.63444556 66.48713061 -85.66796875 69.390625 C-85.70117959 71.37306898 -85.73567267 73.35549192 -85.77148438 75.33789062 C-85.85834933 80.16798636 -85.91878158 84.99738145 -85.98046875 89.828125 C-94.23046875 89.828125 -102.48046875 89.828125 -110.98046875 89.828125 C-113.68260714 62.80674113 -114.17126797 35.42264971 -96.98046875 12.828125 C-73.23474064 -15.72372378 -30.46371266 -22.19898327 0 0 Z " fill="#E2E1FE" transform="translate(439.98046875,256.171875)"/>
<path d="M0 0 C1.08559638 0.24321005 1.08559638 0.24321005 2.193124 0.49133343 C4.84052561 0.97109979 7.22492918 1.13010228 9.91001606 1.1386652 C10.87790509 1.14413964 11.84579411 1.14961409 12.84301311 1.15525442 C13.89845968 1.15623253 14.95390626 1.15721064 16.04133606 1.15821838 C17.16858508 1.16315636 18.29583411 1.16809434 19.45724219 1.17318195 C23.24208249 1.18856478 27.02690582 1.19691975 30.81176758 1.20532227 C33.52183404 1.21435369 36.23189427 1.22486694 38.94195557 1.23532104 C44.78047289 1.25706674 50.6189925 1.27521819 56.45752907 1.29092598 C64.89906416 1.31364198 73.34057432 1.34178241 81.78208824 1.37124526 C95.4780055 1.41889996 109.17393295 1.46216989 122.86987305 1.50268555 C136.17391758 1.54205127 149.47795305 1.58348008 162.78198242 1.62768555 C163.60209259 1.63040982 164.42220275 1.63313409 165.26716474 1.63594092 C169.38143128 1.64962057 173.49569768 1.66334081 177.60996401 1.67708123 C211.73995726 1.79101267 245.86996956 1.89782939 280 2 C280.32033203 2.89565674 280.64066406 3.79131348 280.97070312 4.71411133 C281.61942383 6.47404419 281.61942383 6.47404419 282.28125 8.26953125 C282.91643555 10.01520386 282.91643555 10.01520386 283.56445312 11.79614258 C286.02872935 17.29592095 289.60594558 19.87937878 294.9375 22.375 C295.618125 22.58125 296.29875 22.7875 297 23 C297 23.33 297 23.66 297 24 C263.06266698 24.09163494 229.12536485 24.16207899 195.18793552 24.20426132 C191.177699 24.20926391 187.16746272 24.21444122 183.15722656 24.21972656 C182.35888953 24.2207758 181.5605525 24.22182505 180.73802343 24.22290608 C167.82597239 24.24029247 154.91399287 24.27182038 142.00198421 24.30861118 C128.74462524 24.34606985 115.48730364 24.36824625 102.22989392 24.37635398 C94.05498094 24.38183156 85.88027016 24.39910702 77.70541945 24.43166587 C72.09309486 24.45287464 66.4808742 24.45918572 60.86851248 24.45400551 C57.63454318 24.45145354 54.40099849 24.45746982 51.16707611 24.4768219 C47.65023024 24.4968298 44.13423772 24.49189902 40.61737061 24.48101807 C39.10564054 24.49849512 39.10564054 24.49849512 37.56337047 24.51632524 C24.66511671 24.40903505 14.99022453 19.9244032 5.92578125 10.9453125 C2.55773332 7.32449018 0.69236101 5.00230827 0 0 Z " fill="#49A347" transform="translate(23,478)"/>
<path d="M0 0 C9.24 0 18.48 0 28 0 C28 19.15622616 22.74353397 36.89767699 9.28125 50.9699707 C-3.7325263 63.86531806 -20.0978153 72.08820148 -38.625 72.375 C-41.08506526 72.2906987 -43.54418009 72.16726125 -46 72 C-47.07894531 71.92910156 -48.15789062 71.85820312 -49.26953125 71.78515625 C-66.74432679 69.86745366 -82.97866558 60.00126135 -94.16015625 46.59765625 C-104.18730641 32.44042726 -108.64631267 18.28886405 -108 1 C-99.09 1 -90.18 1 -81 1 C-80.608125 3.26875 -80.21625 5.5375 -79.8125 7.875 C-77.74636775 18.59479829 -73.53659112 27.83985148 -65 35 C-54.9847709 41.32957784 -45.84937638 44.09222548 -34 43 C-22.57377961 40.35652847 -13.03662753 35.15987247 -6.5625 25.1875 C-2.15023898 17.06096276 -1.01679771 9.15117935 0 0 Z " fill="#49A147" transform="translate(237,316)"/>
<path d="M0 0 C8.07383094 4.68413833 13.8057684 11.09969711 16.875 19.96484375 C18.96071865 28.63361191 17.64114922 36.71122478 13.5 44.5625 C12.12936669 45.951437 10.72127052 47.30423288 9.28125 48.62109375 C6.80752034 51.32891612 5.59683086 52.80066143 5.13085938 56.46679688 C5.3869708 59.71019198 5.87418362 62.80756861 6.5 66 C6.85964172 68.14361987 7.21388234 70.28815346 7.5625 72.43359375 C7.73007812 73.46468262 7.89765625 74.49577148 8.0703125 75.55810547 C8.47588434 78.3938822 8.79337209 81.17432317 8.9375 84.03515625 C8.99744141 85.17029663 8.99744141 85.17029663 9.05859375 86.32836914 C8.15784107 89.93098616 6.42827161 91.35019834 3.5 93.5625 C0.55808391 94.04995933 -1.79074393 94.24329763 -4.72265625 94.19140625 C-5.89640053 94.19502419 -5.89640053 94.19502419 -7.09385681 94.19871521 C-8.74206632 94.19773889 -10.39030948 94.18439628 -12.03833008 94.15942383 C-14.55858763 94.12505336 -17.07534787 94.13878742 -19.59570312 94.15820312 C-21.20053572 94.15130572 -22.8053593 94.14163428 -24.41015625 94.12890625 C-25.16128189 94.13386612 -25.91240753 94.13882599 -26.68629456 94.14393616 C-30.18055945 94.0653676 -32.15062103 93.82574818 -34.97680664 91.69628906 C-39.74209849 85.020756 -36.03272662 72.58435999 -34.96484375 65.0234375 C-34.37895486 60.66127316 -34.00483102 56.94828241 -34.5 52.5625 C-36.70754907 50.02067955 -36.70754907 50.02067955 -39.5 47.5625 C-44.6243533 38.90362046 -46.40123604 31.62841801 -45.5 21.5625 C-44.59760786 18.25716651 -43.25481397 15.4963296 -41.5 12.5625 C-41.0875 11.86253906 -40.675 11.16257812 -40.25 10.44140625 C-31.53533125 -2.65535446 -14.02182075 -6.48262977 0 0 Z " fill="#474645" transform="translate(412.5,378.4375)"/>
<path d="M0 0 C3.76544202 0.70352208 5.47200117 2.08510303 7.83965111 5.15707397 C12.23427146 12.13683693 12.43424039 19.69522168 12.38818359 27.7109375 C12.39606903 29.4176059 12.39606903 29.4176059 12.40411377 31.15875244 C12.4172538 34.89764372 12.40859657 38.63610483 12.3984375 42.375 C12.40045995 44.98616619 12.40337281 47.59733183 12.40713501 50.20849609 C12.41257709 55.6722474 12.40544183 61.13587664 12.39111328 66.59960938 C12.37478964 72.89641033 12.38007926 79.19291977 12.3965925 85.48971367 C12.41190067 91.57287298 12.41021201 97.6559041 12.4014473 103.73907471 C12.39945123 106.31618287 12.40188364 108.89329852 12.40888596 111.47039795 C12.41653544 115.07681769 12.40484639 118.6826838 12.38818359 122.2890625 C12.39425629 123.34595276 12.40032898 124.40284302 12.40658569 125.49176025 C12.33978012 133.32757692 11.17087221 139.71267923 6.8125 146.3125 C-1.0311917 153.80758318 -9.05488309 153.578006 -19.28515625 153.51757812 C-20.82999326 153.52300491 -22.3748251 153.53013069 -23.91964722 153.53881836 C-28.09739347 153.55698865 -32.27474275 153.55001042 -36.45249557 153.53730202 C-40.83430768 153.52714157 -45.21608688 153.53657613 -49.59790039 153.54284668 C-56.95497714 153.55011425 -64.31189302 153.54055883 -71.66894531 153.52148438 C-80.1623769 153.4997173 -88.65542434 153.5067693 -97.14884663 153.52879 C-104.45441369 153.54696945 -111.75986542 153.54948991 -119.06544781 153.53903532 C-123.42293782 153.53281435 -127.78024755 153.53192616 -132.13772583 153.54518127 C-136.23535172 153.55677633 -140.33248462 153.5486479 -144.43005753 153.52560425 C-145.92959908 153.52033658 -147.42918247 153.52179756 -148.92870712 153.53065491 C-157.90976456 153.57879396 -165.13551336 153.46516311 -172.09375 147.078125 C-172.5578125 146.47484375 -173.021875 145.8715625 -173.5 145.25 C-174.22703125 144.32960938 -174.22703125 144.32960938 -174.96875 143.390625 C-175.3090625 142.93171875 -175.649375 142.4728125 -176 142 C-175.34 141.67 -174.68 141.34 -174 141 C-173.01 141.33 -172.02 141.66 -171 142 C-168.92540051 142.10005185 -166.84770221 142.13936617 -164.77070618 142.14717102 C-163.46553543 142.15432632 -162.16036469 142.16148163 -160.81564331 142.16885376 C-159.36578393 142.17169403 -157.91592429 142.17440576 -156.46606445 142.17700195 C-154.94167425 142.18326736 -153.41728557 142.18991423 -151.89289856 142.19691467 C-146.88303693 142.21795067 -141.87317502 142.22831756 -136.86328125 142.23828125 C-135.1376818 142.24232917 -133.41208251 142.2464461 -131.68648338 142.25063133 C-123.57812841 142.26968306 -115.46978254 142.28391337 -107.36140949 142.2922433 C-98.00735889 142.30201196 -88.65354516 142.32832179 -79.29957801 142.36874419 C-72.06632931 142.39892725 -64.83314841 142.41371431 -57.59983796 142.41702431 C-53.28135461 142.41937258 -48.96312432 142.42830356 -44.64470863 142.45348549 C-40.57921817 142.47680926 -36.51414659 142.48098232 -32.44860649 142.47072411 C-30.96033457 142.47022965 -29.47204173 142.47652336 -27.98383331 142.49028015 C-15.77211574 142.6415712 -15.77211574 142.6415712 -5.49338245 136.62341785 C0.69967145 129.84184702 0.28076444 122.39244095 0.22705078 113.75244141 C0.22734283 112.52261536 0.22763489 111.29278931 0.22793579 110.0256958 C0.22678401 106.6665568 0.21677721 103.30766585 0.20278788 99.94857073 C0.19025635 96.43319974 0.18910811 92.91782518 0.18673706 89.4024353 C0.1805294 82.75148478 0.16412827 76.10060028 0.14403808 69.44967878 C0.12165683 61.87532788 0.11068006 54.30097378 0.10064721 46.72659802 C0.07976138 31.15102716 0.04459933 15.57552211 0 0 Z " fill="#EBAF21" transform="translate(482,349)"/>
<path d="M0 0 C1.93786085 0.47770523 3.87527674 0.95721571 5.8125 1.4375 C7.43091797 1.83775391 7.43091797 1.83775391 9.08203125 2.24609375 C11.0740843 2.76077412 13.04811524 3.34937175 15 4 C16.49520682 4.09225374 17.9941389 4.13067461 19.4921875 4.1328125 C20.79736328 4.13474609 20.79736328 4.13474609 22.12890625 4.13671875 C23.48822266 4.13091797 23.48822266 4.13091797 24.875 4.125 C25.77347656 4.12886719 26.67195313 4.13273437 27.59765625 4.13671875 C31.87107625 4.13040646 35.82892242 4.03291335 40 3 C46.36569725 2.37591203 51.48124188 3.91277392 57 7 C62.41274233 11.47287284 65.4453115 17.40070784 66.28125 24.33203125 C66.41688346 27.73982184 66.16130208 30.49305062 65.125 33.75 C58.73893718 40.51171357 48.73922663 43.04677147 39.75 43.375 C28.67204916 43.17173485 19.11690662 38.72226748 11.0625 31.1875 C4.00650806 23.64488793 -0.20107184 15.08038799 -0.0625 4.6875 C-0.05347656 3.80449219 -0.04445312 2.92148437 -0.03515625 2.01171875 C-0.02355469 1.34785156 -0.01195312 0.68398438 0 0 Z " fill="#F5C8A8" transform="translate(157,317)"/>
<path d="M0 0 C2.95716074 2.39101287 5.67329927 4.98490539 8.27929688 7.75097656 C4.6150632 7.75097656 2.8794614 6.65106393 -0.34570312 4.93847656 C-15.48751874 -2.80595024 -33.40493834 -5.05794593 -50.03320312 -0.74902344 C-68.577484 5.50504074 -83.730576 16.72944535 -92.62695312 34.47753906 C-93.26985362 35.83600163 -93.90530841 37.19801334 -94.53320312 38.56347656 C-94.82364502 39.17860107 -95.11408691 39.79372559 -95.41333008 40.42749023 C-100.25641955 51.58790161 -100.07701395 64.09981104 -100.34570312 76.06347656 C-100.38401513 77.4977416 -100.42307373 78.93198689 -100.46289062 80.36621094 C-100.55739909 83.82761554 -100.64193118 87.28917376 -100.72070312 90.75097656 C-103.69070313 90.75097656 -106.66070312 90.75097656 -109.72070312 90.75097656 C-112.84704226 63.97539459 -112.70870179 36.07895275 -95.72070312 13.75097656 C-72.68528136 -13.9468003 -30.00837977 -21.78247317 0 0 Z " fill="#C2C2EE" transform="translate(438.720703125,255.2490234375)"/>
<path d="M0 0 C2.31100755 32.45221452 2.31100755 32.45221452 -8.21875 47.07421875 C-10.03911642 49.04229034 -11.53791016 49.99032719 -14 51 C-13.95359375 50.32195312 -13.9071875 49.64390625 -13.859375 48.9453125 C-13.56487784 41.35149289 -14.38442488 34.46063558 -19.3203125 28.37109375 C-23.96315103 24.1215011 -29.52325202 22.16791512 -35.6875 21.75 C-38.82176125 21.9006966 -38.82176125 21.9006966 -41.11328125 22.49609375 C-53.80848045 24.71217047 -67.39734084 23.80132958 -79 18 C-79 12.39 -79 6.78 -79 1 C-76.8653125 1.6496875 -76.8653125 1.6496875 -74.6875 2.3125 C-70.90321005 3.44349884 -67.11478292 4.55593707 -63.3125 5.625 C-62.03826172 5.98464844 -62.03826172 5.98464844 -60.73828125 6.3515625 C-42.05806812 10.77512224 -21.21262264 8.61680883 -3.75 0.734375 C-2 0 -2 0 0 0 Z " fill="#E7AA80" transform="translate(236,299)"/>
<path d="M0 0 C1.27230469 0.00902344 2.54460937 0.01804687 3.85546875 0.02734375 C5.31919922 0.04474609 5.31919922 0.04474609 6.8125 0.0625 C5.8125 2.0625 5.8125 2.0625 4.02734375 2.703125 C3.27582031 2.90421875 2.52429688 3.1053125 1.75 3.3125 C-6.91693183 6.10517803 -11.58813029 10.87504672 -16.05859375 18.6953125 C-19.40618233 25.71482349 -19.23412082 34.44728048 -17.5390625 41.921875 C-15.86274986 46.53531663 -13.90433031 49.47978425 -10.375 52.875 C-8.06423711 55.34376377 -7.2434707 56.52341378 -6.890625 59.921875 C-7.1415619 63.35134603 -7.61799391 66.67135009 -8.1875 70.0625 C-8.54783252 72.68666072 -8.90196841 75.31167955 -9.25 77.9375 C-9.42660156 79.13117188 -9.60320312 80.32484375 -9.78515625 81.5546875 C-10.3272588 86.28097965 -10.70329842 90.51510473 -9.1875 95.0625 C-8.5275 95.3925 -7.8675 95.7225 -7.1875 96.0625 C-8.76929615 96.17117302 -10.35327153 96.24839827 -11.9375 96.3125 C-12.81921875 96.35890625 -13.7009375 96.4053125 -14.609375 96.453125 C-17.1875 96.0625 -17.1875 96.0625 -19.4921875 94.41015625 C-24.42110211 87.58463164 -20.75027084 75.29708187 -19.65234375 67.5234375 C-19.06645486 63.16127316 -18.69233102 59.44828241 -19.1875 55.0625 C-21.39504907 52.52067955 -21.39504907 52.52067955 -24.1875 50.0625 C-29.3118533 41.40362046 -31.08873604 34.12841801 -30.1875 24.0625 C-29.28510786 20.75716651 -27.94231397 17.9963296 -26.1875 15.0625 C-25.775 14.36253906 -25.3625 13.66257812 -24.9375 12.94140625 C-19.07016384 4.12373344 -10.39961082 -0.09540927 0 0 Z " fill="#1F1E1C" transform="translate(397.1875,375.9375)"/>
<path d="M0 0 C3.5 0.875 3.5 0.875 5.4375 2.0625 C7.02228435 4.76595566 6.75604987 6.7798089 6.5 9.875 C5.14453125 12.48046875 5.14453125 12.48046875 3.3125 15.0625 C-4.09537138 26.15185898 -8.13660065 37.57137974 -8.9375 50.9375 C-9.19197196 54.29457245 -9.36273905 55.65639922 -11.1875 58.5625 C-14.25762811 60.30500514 -16.02212326 60.45464612 -19.5 59.875 C-22.03288252 57.86980134 -23.33010364 56.64827826 -24.03125 53.45703125 C-23.81579182 34.36204981 -17.29043363 15.76121339 -5.01171875 1.09765625 C-3.5 -0.125 -3.5 -0.125 0 0 Z " fill="#8AD688" transform="translate(63.5,370.125)"/>
<path d="M0 0 C1.58669495 -0.00472824 1.58669495 -0.00472824 3.20544434 -0.009552 C4.93196228 -0.00651566 4.93196228 -0.00651566 6.69335938 -0.00341797 C8.45226501 -0.00485306 8.45226501 -0.00485306 10.2467041 -0.00631714 C12.73169 -0.00699917 15.21667766 -0.00514331 17.70166016 -0.00097656 C21.52054825 0.00437134 25.33931872 -0.00092083 29.15820312 -0.00732422 C31.56575547 -0.00666344 33.97330774 -0.00538229 36.38085938 -0.00341797 C38.10737732 -0.00645432 38.10737732 -0.00645432 39.86877441 -0.009552 C40.92657104 -0.00639984 41.98436768 -0.00324768 43.07421875 0 C44.47867249 0.00119339 44.47867249 0.00119339 45.91149902 0.00241089 C48.03710938 0.12939453 48.03710938 0.12939453 49.03710938 1.12939453 C49.53710938 3.25439453 49.53710938 3.25439453 49.03710938 6.12939453 C44.417592 12.47218014 36.82766869 17.73771082 29.03710938 19.12939453 C17.91757024 19.76185509 9.12060687 18.93715497 0.03710938 12.12939453 C-2.83789062 9.44189453 -2.83789062 9.44189453 -4.96289062 7.12939453 C-5.62289062 6.46939453 -6.28289062 5.80939453 -6.96289062 5.12939453 C-6.19422916 0.05622888 -4.87291001 0.0041406 0 0 Z " fill="#E8AA80" transform="translate(173.962890625,260.87060546875)"/>
<path d="M0 0 C3.0625 0.3125 3.0625 0.3125 4.72865295 1.51637268 C6.50109862 3.90310667 6.44888911 5.40422438 6.46655273 8.36303711 C6.47923691 9.39097885 6.49192108 10.41892059 6.50498962 11.47801208 C6.50205399 12.58741653 6.49911835 13.69682098 6.49609375 14.83984375 C6.5013356 15.98030655 6.50657745 17.12076935 6.51197815 18.29579163 C6.51840546 20.70914902 6.51705224 23.12253771 6.50854492 25.53588867 C6.50004101 29.23217497 6.52877919 32.92691359 6.56054688 36.62304688 C6.56215906 38.96614537 6.56158104 41.30924661 6.55859375 43.65234375 C6.57544472 45.31341408 6.57544472 45.31341408 6.59263611 47.00804138 C6.58325516 48.03913528 6.57387421 49.07022919 6.56420898 50.13256836 C6.56404282 51.03841171 6.56387665 51.94425507 6.56370544 52.87754822 C5.89978911 56.10298056 4.64315841 57.32635955 2.0625 59.3125 C-1.125 59.1875 -1.125 59.1875 -3.9375 58.3125 C-5.2054188 55.77666241 -5.0713601 53.998727 -5.08276367 51.16015625 C-5.08914352 50.08564209 -5.09552338 49.01112793 -5.10209656 47.90405273 C-5.10320938 46.73946533 -5.1043222 45.57487793 -5.10546875 44.375 C-5.10879715 43.18398682 -5.11212555 41.99297363 -5.11555481 40.76586914 C-5.1206246 38.2439818 -5.12296312 35.72208774 -5.12280273 33.20019531 C-5.12499086 29.32866455 -5.14315084 25.45741786 -5.16210938 21.5859375 C-5.16504287 19.14062598 -5.16702796 16.6953131 -5.16796875 14.25 C-5.17515427 13.0854126 -5.18233978 11.9208252 -5.18974304 10.72094727 C-5.18666641 9.64643311 -5.18358978 8.57191895 -5.18041992 7.46484375 C-5.18184494 6.51601318 -5.18326996 5.56718262 -5.18473816 4.58959961 C-4.78729534 0.92909315 -3.54709275 0.37735029 0 0 Z " fill="#FAD486" transform="translate(319.9375,399.6875)"/>
<path d="M0 0 C3.39488422 2.05107588 4.80323081 3.70484621 7 7 C7.45705286 12.57604492 7.22168614 16.2230171 4 21 C0.39537678 24.1805499 -3.12319564 24.56954504 -7.77734375 24.4296875 C-11.58350909 23.69387346 -13.35670706 21.77545759 -16 19 C-17.86233425 15.27533151 -17.57130829 11.05504687 -17 7 C-13.12557837 -0.24285536 -7.55978674 -0.88098302 0 0 Z " fill="#302E2E" transform="translate(240,187)"/>
<path d="M0 0 C3.12578143 1.6720747 5.39281175 3.7856235 7 7 C7.57717357 11.73093088 7.43416625 15.14717343 5.25 19.4375 C2.64299497 22.40658907 0.73159041 23.73360148 -3.18359375 24.3359375 C-7.18287366 24.40524911 -9.42740621 24.34111971 -12.9375 22.25 C-16.69933581 18.14617912 -17.49371817 14.72210986 -17.39453125 9.2578125 C-16.72202988 5.40924032 -14.79323112 3.66022012 -12 1 C-8.27533151 -0.86233425 -4.05504687 -0.57130829 0 0 Z " fill="#302E2E" transform="translate(161,187)"/>
<path d="M0 0 C0.54527344 0.433125 1.09054688 0.86625 1.65234375 1.3125 C6.39890827 4.81765534 9.93413314 6.88701514 15.92578125 6.46875 C19.19510959 5.72991874 21.42621847 4.08353743 24 2 C24.99 1.34 25.98 0.68 27 0 C28 1 28 1 28.3125 3.625 C27.91678334 7.89873997 26.68876293 10.67265587 24 14 C19.13198785 17.59305659 13.84455716 17.85530105 8 17 C3.5874765 14.8338521 0.90941488 12.56138 -1 8 C-1.25 4.25 -1.25 4.25 -1 1 C-0.67 0.67 -0.34 0.34 0 0 Z " fill="#E8AB81" transform="translate(182,226)"/>
<path d="M0 0 C2.13334022 -0.00218879 4.26616522 -0.02035646 6.39941406 -0.03930664 C7.75097479 -0.0422402 9.10253798 -0.04422525 10.45410156 -0.04516602 C11.68773437 -0.0492749 12.92136719 -0.05338379 14.19238281 -0.05761719 C17.14160156 0.18530273 17.14160156 0.18530273 19.14160156 2.18530273 C18.58604601 6.74085829 18.58604601 6.74085829 17.14160156 8.18530273 C12.74161211 8.40363263 8.33625345 8.37109419 3.93139648 8.37060547 C1.71676374 8.37279024 -0.49736967 8.39093804 -2.71191406 8.40991211 C-4.11360506 8.4128463 -5.51529843 8.41483092 -6.91699219 8.41577148 C-8.19888428 8.41988037 -9.48077637 8.42398926 -10.80151367 8.42822266 C-13.85839844 8.18530273 -13.85839844 8.18530273 -15.85839844 6.18530273 C-15.60839844 3.62280273 -15.60839844 3.62280273 -14.85839844 1.18530273 C-10.55166902 -0.96806197 -4.78514839 -0.00055205 0 0 Z " fill="#373332" transform="translate(232.8583984375,171.814697265625)"/>
<path d="M0 0 C1.05368774 0.00012085 1.05368774 0.00012085 2.12866211 0.00024414 C4.27087312 -0.00194055 6.41256783 -0.02008824 8.5546875 -0.0390625 C9.91080552 -0.04199671 11.266926 -0.04398132 12.62304688 -0.04492188 C13.86304443 -0.04903076 15.10304199 -0.05313965 16.38061523 -0.05737305 C19.34570312 0.18554688 19.34570312 0.18554688 21.34570312 2.18554688 C21.47070312 4.81054688 21.47070312 4.81054688 21.34570312 7.18554688 C17.03897371 9.33891158 11.27245308 8.37140166 6.48730469 8.37084961 C4.35396447 8.3730384 2.22113947 8.39120607 0.08789062 8.41015625 C-1.2636701 8.41308981 -2.61523329 8.41507486 -3.96679688 8.41601562 C-5.20042969 8.42012451 -6.4340625 8.4242334 -7.70507812 8.4284668 C-10.65429688 8.18554688 -10.65429688 8.18554688 -12.65429688 6.18554688 C-11.67210083 -1.86846067 -6.95887914 0.02524407 0 0 Z " fill="#353231" transform="translate(151.654296875,171.814453125)"/>
<path d="M0 0 C3.125 1.1875 3.125 1.1875 5.125 2.875 C6.59126157 6.26572987 6.44505095 7.7136817 5.125 11.1875 C1.60072124 14.94217955 -1.57091104 16.99509343 -6.6875 17.75 C-9.875 17.1875 -9.875 17.1875 -11.8125 16.125 C-13.65293165 12.76891876 -13.62833767 10.95418837 -12.875 7.1875 C-9.18143912 2.91503665 -5.70302858 0.275953 0 0 Z " fill="#8AD688" transform="translate(86.875,348.8125)"/>
<path d="M0 0 C3.0625 0.3125 3.0625 0.3125 4.7265625 1.4921875 C7.41986309 5.16200643 6.63797695 9.98672386 6.0625 14.3125 C4.4375 17.0625 4.4375 17.0625 2.0625 18.3125 C-1.125 18.1875 -1.125 18.1875 -3.9375 17.3125 C-5.3616906 14.46411879 -5.10745508 11.98462092 -5.125 8.8125 C-5.14626953 7.06453125 -5.14626953 7.06453125 -5.16796875 5.28125 C-4.85171272 1.2074435 -4.05590739 0.43147951 0 0 Z " fill="#FAD384" transform="translate(319.9375,369.6875)"/>
<path d="M0 0 C1.32 0.33 2.64 0.66 4 1 C3.96519531 2.32064453 3.96519531 2.32064453 3.9296875 3.66796875 C3.91164063 4.82941406 3.89359375 5.99085938 3.875 7.1875 C3.84019531 8.91033203 3.84019531 8.91033203 3.8046875 10.66796875 C3.99515848 13.91740372 4.60639873 16.08660521 6 19 C4.35 19.33 2.7 19.66 1 20 C-2.50170122 15.76877769 -2.32255867 11.85493408 -2.30078125 6.62109375 C-1.99588312 3.9641243 -1.34978956 2.28550025 0 0 Z " fill="#F0B68F" transform="translate(90,173)"/>
<path d="M0 0 C2.0625 0.4375 2.0625 0.4375 4 1 C5.61288642 6.74915965 5.83286348 12.02194924 3.5 17.5625 C3.005 18.366875 2.51 19.17125 2 20 C0.35 19.67 -1.3 19.34 -3 19 C-2.67 18.2575 -2.34 17.515 -2 16.75 C-0.79221945 12.22082293 -0.89547649 8.17293978 -1.02734375 3.51171875 C-1 1 -1 1 0 0 Z " fill="#F0B68E" transform="translate(299,173)"/>
</svg>
